<svg xmlns="http://www.w3.org/2000/svg" viewBox="0 0 810.52 82.69"><defs><style>.cls-1{fill:#243e50;}.cls-2{fill:#536978;}.cls-3{fill:#80d898;}.cls-4{fill:#005885;}.cls-5{fill:#ffdf00;}.cls-6{fill:#dcdddf;}.cls-7{fill:#fff;}</style></defs><g id="图层_2" data-name="图层 2"><g id="图层_1-2" data-name="图层 1"><rect class="cls-1" x="255.36" y="59.72" width="21.41" height="2.83" transform="translate(532.13 122.27) rotate(180)"/><rect class="cls-2" x="255.36" y="42.01" width="21.41" height="1.42" transform="translate(532.13 85.44) rotate(180)"/><rect class="cls-1" x="526.08" y="59.72" width="21.41" height="2.83" transform="translate(1073.57 122.27) rotate(180)"/><rect class="cls-2" x="526.08" y="42.01" width="21.41" height="1.42" transform="translate(1073.57 85.44) rotate(180)"/><rect class="cls-2" x="699.94" y="62.29" width="36.8" height="16.59" transform="translate(1436.69 141.16) rotate(180)"/><rect class="cls-1" x="699.94" y="62.29" width="36.8" height="7.88" transform="translate(1436.69 132.45) rotate(180)"/><rect class="cls-1" x="702.71" y="73.26" width="31.26" height="1.36" transform="translate(1436.69 147.87) rotate(180)"/><rect class="cls-2" x="605.03" y="62.29" width="36.8" height="16.59" transform="translate(1246.87 141.16) rotate(180)"/><rect class="cls-1" x="605.03" y="62.29" width="36.8" height="7.88" transform="translate(1246.87 132.45) rotate(180)"/><rect class="cls-1" x="607.8" y="73.26" width="31.26" height="1.36" transform="translate(1246.87 147.87) rotate(180)"/><path class="cls-1" d="M767.22,70.66a12,12,0,1,0,12-12A12,12,0,0,0,767.22,70.66Z"/><path class="cls-2" d="M774.38,70.66a4.87,4.87,0,1,0,4.87-4.87A4.87,4.87,0,0,0,774.38,70.66Z"/><path class="cls-1" d="M740.58,70.66a12,12,0,1,0,12-12A12,12,0,0,0,740.58,70.66Z"/><path class="cls-2" d="M747.74,70.66a4.87,4.87,0,1,0,4.87-4.87A4.87,4.87,0,0,0,747.74,70.66Z"/><rect class="cls-2" x="752.4" y="69.17" width="27.4" height="2.25" transform="translate(1532.2 140.58) rotate(180)"/><path class="cls-1" d="M672.49,70.66a12,12,0,1,0,12-12A12,12,0,0,0,672.49,70.66Z"/><path class="cls-2" d="M679.65,70.66a4.87,4.87,0,1,0,4.87-4.87A4.87,4.87,0,0,0,679.65,70.66Z"/><path class="cls-1" d="M645.84,70.66a12,12,0,1,0,12-12A12,12,0,0,0,645.84,70.66Z"/><path class="cls-2" d="M653,70.66a4.87,4.87,0,1,0,4.87-4.87A4.88,4.88,0,0,0,653,70.66Z"/><rect class="cls-2" x="657.66" y="69.17" width="27.4" height="2.25" transform="translate(1342.73 140.58) rotate(180)"/><path class="cls-1" d="M577.75,70.66a12,12,0,1,0,12-12A12,12,0,0,0,577.75,70.66Z"/><path class="cls-2" d="M584.91,70.66a4.88,4.88,0,1,0,4.87-4.87A4.88,4.88,0,0,0,584.91,70.66Z"/><path class="cls-1" d="M551.11,70.66a12,12,0,1,0,12-12A12,12,0,0,0,551.11,70.66Z"/><path class="cls-2" d="M558.27,70.66a4.87,4.87,0,1,0,4.87-4.87A4.87,4.87,0,0,0,558.27,70.66Z"/><rect class="cls-2" x="562.93" y="69.17" width="27.4" height="2.25" transform="translate(1153.27 140.58) rotate(180)"/><path class="cls-3" d="M559.53,0h212.8S788.83-1.07,792,12c0,0,10.81,34.05,11.21,52.47H544.25V14.6S544.19,0,559.53,0Z"/><path class="cls-1" d="M777.74,32.72l-4-15s-3.66-8.33,2.66-9.33h14.17A15,15,0,0,1,792,12s6.64,20.91,9.7,38.82C794.42,50.14,781.51,46.83,777.74,32.72Z"/><path class="cls-2" d="M776.53,8.41h14.05A15,15,0,0,1,792,12s2.24,7.08,4.73,16.53Z"/><polygon class="cls-4" points="796.52 55.82 802.5 55.82 810.52 76.19 796.52 76.19 796.52 55.82"/><rect class="cls-5" x="542.17" y="55.82" width="259.2" height="10.56" transform="translate(1343.54 122.2) rotate(180)"/><rect class="cls-1" x="689" y="20.03" width="12.66" height="17.02" rx="2.31" transform="translate(1390.67 57.08) rotate(180)"/><path class="cls-2" d="M701.66,30.2v5.59a1.25,1.25,0,0,1-1.26,1.26H690.26A1.26,1.26,0,0,1,689,35.79V30.2Z"/><rect class="cls-6" x="689" y="30.2" width="12.66" height="0.78"/><rect class="cls-1" x="673.14" y="20.03" width="12.66" height="17.02" rx="2.31" transform="translate(1358.93 57.08) rotate(180)"/><path class="cls-2" d="M685.79,30.2v5.59a1.25,1.25,0,0,1-1.26,1.26H674.4a1.25,1.25,0,0,1-1.26-1.26V30.2Z"/><rect class="cls-6" x="673.14" y="30.2" width="12.66" height="0.78"/><rect class="cls-1" x="657.27" y="20.03" width="12.66" height="17.02" rx="2.31" transform="translate(1327.19 57.08) rotate(180)"/><path class="cls-2" d="M669.92,30.2v5.59a1.25,1.25,0,0,1-1.25,1.26H658.53a1.26,1.26,0,0,1-1.26-1.26V30.2Z"/><rect class="cls-6" x="657.27" y="30.2" width="12.66" height="0.78"/><rect class="cls-1" x="641.4" y="20.03" width="12.66" height="17.02" rx="2.31" transform="translate(1295.46 57.08) rotate(180)"/><path class="cls-2" d="M654.06,30.2v5.59a1.26,1.26,0,0,1-1.26,1.26H642.66a1.26,1.26,0,0,1-1.26-1.26V30.2Z"/><rect class="cls-6" x="641.4" y="30.2" width="12.66" height="0.78"/><rect class="cls-1" x="596.84" y="20.03" width="12.66" height="17.02" rx="2.31" transform="translate(1206.33 57.08) rotate(180)"/><path class="cls-2" d="M609.49,30.2v5.59a1.25,1.25,0,0,1-1.26,1.26H598.1a1.25,1.25,0,0,1-1.26-1.26V30.2Z"/><rect class="cls-6" x="596.84" y="30.2" width="12.66" height="0.78"/><rect class="cls-1" x="580.97" y="20.03" width="12.66" height="17.02" rx="2.31" transform="translate(1174.59 57.08) rotate(180)"/><path class="cls-2" d="M593.63,30.2v5.59a1.26,1.26,0,0,1-1.26,1.26H582.23A1.26,1.26,0,0,1,581,35.79V30.2Z"/><rect class="cls-6" x="580.97" y="30.2" width="12.66" height="0.78"/><rect class="cls-1" x="565.1" y="20.03" width="12.66" height="17.02" rx="2.31" transform="translate(1142.86 57.08) rotate(180)"/><path class="cls-2" d="M577.76,30.2v5.59a1.26,1.26,0,0,1-1.26,1.26H566.36a1.26,1.26,0,0,1-1.26-1.26V30.2Z"/><rect class="cls-6" x="565.1" y="30.2" width="12.66" height="0.78"/><rect class="cls-1" x="549.23" y="20.03" width="12.66" height="17.02" rx="2.31" transform="translate(1111.12 57.08) rotate(180)"/><path class="cls-2" d="M561.89,30.2v5.59a1.26,1.26,0,0,1-1.26,1.26H550.49a1.26,1.26,0,0,1-1.26-1.26V30.2Z"/><rect class="cls-6" x="549.23" y="30.2" width="12.66" height="0.78"/><rect class="cls-1" x="750.45" y="20.03" width="12.66" height="17.02" rx="2.31" transform="translate(1513.57 57.08) rotate(180)"/><path class="cls-2" d="M763.11,30.2v5.59a1.26,1.26,0,0,1-1.26,1.26H751.71a1.26,1.26,0,0,1-1.26-1.26V30.2Z"/><rect class="cls-6" x="750.45" y="30.2" width="12.66" height="0.78"/><rect class="cls-1" x="734.59" y="20.03" width="12.66" height="17.02" rx="2.31" transform="translate(1481.83 57.08) rotate(180)"/><path class="cls-2" d="M747.24,30.2v5.59A1.25,1.25,0,0,1,746,37.05H735.85a1.25,1.25,0,0,1-1.26-1.26V30.2Z"/><rect class="cls-6" x="734.59" y="30.2" width="12.66" height="0.78"/><path class="cls-7" d="M559.53,0h212.8s14.95-1,19.08,10.25H545C546.22,6,549.73,0,559.53,0Z"/><rect class="cls-1" x="707.51" y="15.86" width="21.6" height="43.89" transform="translate(1436.62 75.62) rotate(180)"/><rect class="cls-1" x="613.99" y="15.86" width="21.6" height="43.89" transform="translate(1249.59 75.62) rotate(180)"/><path class="cls-3" d="M287,0H515.32c15.34,0,15.29,14.58,15.29,14.58V64.51H271.68V14.6S271.63,0,287,0Z"/><rect class="cls-2" x="427.38" y="62.29" width="36.8" height="16.59" transform="translate(891.56 141.16) rotate(180)"/><rect class="cls-1" x="427.38" y="62.29" width="36.8" height="7.88" transform="translate(891.56 132.45) rotate(180)"/><rect class="cls-1" x="430.15" y="73.26" width="31.26" height="1.36" transform="translate(891.56 147.87) rotate(180)"/><rect class="cls-2" x="332.47" y="62.29" width="36.8" height="16.59" transform="translate(701.74 141.16) rotate(180)"/><rect class="cls-1" x="332.47" y="62.29" width="36.8" height="7.88" transform="translate(701.74 132.45) rotate(180)"/><rect class="cls-1" x="335.24" y="73.26" width="31.26" height="1.36" transform="translate(701.74 147.87) rotate(180)"/><path class="cls-1" d="M494.65,70.66a12,12,0,1,0,12-12A12,12,0,0,0,494.65,70.66Z"/><path class="cls-2" d="M501.82,70.66a4.87,4.87,0,1,0,4.87-4.87A4.87,4.87,0,0,0,501.82,70.66Z"/><path class="cls-1" d="M468,70.66a12,12,0,1,0,12-12A12,12,0,0,0,468,70.66Z"/><path class="cls-2" d="M475.17,70.66A4.87,4.87,0,1,0,480,65.79,4.87,4.87,0,0,0,475.17,70.66Z"/><rect class="cls-2" x="479.83" y="69.17" width="27.4" height="2.25" transform="translate(987.07 140.58) rotate(180)"/><path class="cls-1" d="M399.92,70.66a12,12,0,1,0,12-12A12,12,0,0,0,399.92,70.66Z"/><path class="cls-2" d="M407.08,70.66A4.87,4.87,0,1,0,412,65.79,4.87,4.87,0,0,0,407.08,70.66Z"/><path class="cls-1" d="M373.28,70.66a12,12,0,1,0,12-12A12,12,0,0,0,373.28,70.66Z"/><path class="cls-2" d="M380.44,70.66a4.87,4.87,0,1,0,4.87-4.87A4.87,4.87,0,0,0,380.44,70.66Z"/><rect class="cls-2" x="385.1" y="69.17" width="27.4" height="2.25" transform="translate(797.6 140.58) rotate(180)"/><path class="cls-1" d="M305.19,70.66a12,12,0,1,0,12-12A12,12,0,0,0,305.19,70.66Z"/><path class="cls-2" d="M312.35,70.66a4.87,4.87,0,1,0,4.87-4.87A4.87,4.87,0,0,0,312.35,70.66Z"/><path class="cls-1" d="M278.55,70.66a12,12,0,1,0,12-12A12,12,0,0,0,278.55,70.66Z"/><path class="cls-2" d="M285.71,70.66a4.87,4.87,0,1,0,4.87-4.87A4.87,4.87,0,0,0,285.71,70.66Z"/><rect class="cls-2" x="290.37" y="69.17" width="27.4" height="2.25" transform="translate(608.14 140.58) rotate(180)"/><rect class="cls-1" x="417.22" y="20.03" width="12.66" height="17.02" rx="2.31" transform="translate(847.1 57.08) rotate(180)"/><path class="cls-2" d="M429.88,30.2v5.59a1.26,1.26,0,0,1-1.26,1.26H418.48a1.26,1.26,0,0,1-1.26-1.26V30.2Z"/><rect class="cls-6" x="417.22" y="30.2" width="12.66" height="0.78"/><rect class="cls-1" x="401.35" y="20.03" width="12.66" height="17.02" rx="2.31" transform="translate(815.36 57.08) rotate(180)"/><path class="cls-2" d="M414,30.2v5.59a1.26,1.26,0,0,1-1.26,1.26H402.61a1.26,1.26,0,0,1-1.26-1.26V30.2Z"/><rect class="cls-6" x="401.35" y="30.2" width="12.66" height="0.78"/><rect class="cls-1" x="385.49" y="20.03" width="12.66" height="17.02" rx="2.31" transform="translate(783.63 57.08) rotate(180)"/><path class="cls-2" d="M398.14,30.2v5.59a1.25,1.25,0,0,1-1.26,1.26H386.74a1.25,1.25,0,0,1-1.25-1.26V30.2Z"/><rect class="cls-6" x="385.49" y="30.2" width="12.66" height="0.78"/><rect class="cls-1" x="369.62" y="20.03" width="12.66" height="17.02" rx="2.31" transform="translate(751.89 57.08) rotate(180)"/><path class="cls-2" d="M382.27,30.2v5.59A1.25,1.25,0,0,1,381,37.05H370.88a1.25,1.25,0,0,1-1.26-1.26V30.2Z"/><rect class="cls-6" x="369.62" y="30.2" width="12.66" height="0.78"/><rect class="cls-1" x="510.93" y="20.03" width="12.66" height="17.02" rx="2.31" transform="translate(1034.52 57.08) rotate(180)"/><path class="cls-2" d="M523.59,30.2v5.59a1.26,1.26,0,0,1-1.26,1.26H512.19a1.26,1.26,0,0,1-1.26-1.26V30.2Z"/><rect class="cls-6" x="510.93" y="30.2" width="12.66" height="0.78"/><rect class="cls-1" x="495.06" y="20.03" width="12.66" height="17.02" rx="2.31" transform="translate(1002.78 57.08) rotate(180)"/><path class="cls-2" d="M507.72,30.2v5.59a1.26,1.26,0,0,1-1.26,1.26H496.32a1.26,1.26,0,0,1-1.26-1.26V30.2Z"/><rect class="cls-6" x="495.06" y="30.2" width="12.66" height="0.78"/><rect class="cls-1" x="479.19" y="20.03" width="12.66" height="17.02" rx="2.31" transform="translate(971.05 57.08) rotate(180)"/><path class="cls-2" d="M491.85,30.2v5.59a1.26,1.26,0,0,1-1.26,1.26H480.45a1.26,1.26,0,0,1-1.26-1.26V30.2Z"/><rect class="cls-6" x="479.19" y="30.2" width="12.66" height="0.78"/><rect class="cls-1" x="463.33" y="20.03" width="12.66" height="17.02" rx="2.31" transform="translate(939.31 57.08) rotate(180)"/><path class="cls-2" d="M476,30.2v5.59a1.25,1.25,0,0,1-1.26,1.26H464.58a1.25,1.25,0,0,1-1.25-1.26V30.2Z"/><rect class="cls-6" x="463.33" y="30.2" width="12.66" height="0.78"/><rect class="cls-1" x="323.51" y="20.03" width="12.66" height="17.02" rx="2.31" transform="translate(659.68 57.08) rotate(180)"/><path class="cls-2" d="M336.17,30.2v5.59a1.26,1.26,0,0,1-1.26,1.26H324.77a1.26,1.26,0,0,1-1.26-1.26V30.2Z"/><rect class="cls-6" x="323.51" y="30.2" width="12.66" height="0.78"/><rect class="cls-1" x="307.64" y="20.03" width="12.66" height="17.02" rx="2.31" transform="translate(627.95 57.08) rotate(180)"/><path class="cls-2" d="M320.3,30.2v5.59A1.25,1.25,0,0,1,319,37.05H308.9a1.26,1.26,0,0,1-1.26-1.26V30.2Z"/><rect class="cls-6" x="307.64" y="30.2" width="12.66" height="0.78"/><rect class="cls-1" x="291.78" y="20.03" width="12.66" height="17.02" rx="2.31" transform="translate(596.21 57.08) rotate(180)"/><path class="cls-2" d="M304.43,30.2v5.59a1.25,1.25,0,0,1-1.26,1.26H293a1.25,1.25,0,0,1-1.26-1.26V30.2Z"/><rect class="cls-6" x="291.78" y="30.2" width="12.66" height="0.78"/><rect class="cls-1" x="275.91" y="20.03" width="12.66" height="17.02" rx="2.31" transform="translate(564.47 57.08) rotate(180)"/><path class="cls-2" d="M288.56,30.2v5.59a1.25,1.25,0,0,1-1.25,1.26H277.17a1.26,1.26,0,0,1-1.26-1.26V30.2Z"/><rect class="cls-6" x="275.91" y="30.2" width="12.66" height="0.78"/><path class="cls-7" d="M529.9,10.27H272.39C273.66,6,277.17,0,287,0H515.32C525.12,0,528.63,6,529.9,10.27Z"/><rect class="cls-5" x="271.68" y="45.65" width="258.92" height="20.75"/><rect class="cls-1" x="435.71" y="15.86" width="21.6" height="43.89" transform="translate(893.01 75.62) rotate(180)"/><rect class="cls-1" x="342.19" y="15.86" width="21.6" height="43.89" transform="translate(705.98 75.62) rotate(180)"/><path class="cls-3" d="M15.29,0H243.64C259,0,258.92,14.6,258.92,14.6V64.51H0V14.6S-.06,0,15.29,0Z"/><rect class="cls-2" x="155.7" y="62.29" width="36.8" height="16.59" transform="translate(348.19 141.16) rotate(180)"/><rect class="cls-1" x="155.7" y="62.29" width="36.8" height="7.88" transform="translate(348.19 132.45) rotate(180)"/><rect class="cls-1" x="158.46" y="73.26" width="31.26" height="1.36" transform="translate(348.19 147.87) rotate(180)"/><rect class="cls-2" x="60.78" y="62.29" width="36.8" height="16.59" transform="translate(158.37 141.16) rotate(180)"/><rect class="cls-1" x="60.78" y="62.29" width="36.8" height="7.88" transform="translate(158.37 132.45) rotate(180)"/><rect class="cls-1" x="63.55" y="73.26" width="31.26" height="1.36" transform="translate(158.37 147.87) rotate(180)"/><path class="cls-1" d="M223,70.66a12,12,0,1,0,12-12A12,12,0,0,0,223,70.66Z"/><path class="cls-2" d="M230.13,70.66A4.87,4.87,0,1,0,235,65.79,4.87,4.87,0,0,0,230.13,70.66Z"/><path class="cls-1" d="M196.33,70.66a12,12,0,1,0,12-12A12,12,0,0,0,196.33,70.66Z"/><path class="cls-2" d="M203.49,70.66a4.87,4.87,0,1,0,4.87-4.87A4.87,4.87,0,0,0,203.49,70.66Z"/><rect class="cls-2" x="208.15" y="69.17" width="27.4" height="2.25" transform="translate(443.7 140.58) rotate(180)"/><path class="cls-1" d="M128.24,70.66a12,12,0,1,0,12-12A12,12,0,0,0,128.24,70.66Z"/><path class="cls-2" d="M135.4,70.66a4.87,4.87,0,1,0,4.87-4.87A4.87,4.87,0,0,0,135.4,70.66Z"/><path class="cls-1" d="M101.6,70.66a12,12,0,1,0,12-12A12,12,0,0,0,101.6,70.66Z"/><path class="cls-2" d="M108.76,70.66a4.87,4.87,0,1,0,4.87-4.87A4.87,4.87,0,0,0,108.76,70.66Z"/><rect class="cls-2" x="113.42" y="69.17" width="27.4" height="2.25" transform="translate(254.24 140.58) rotate(180)"/><path class="cls-1" d="M33.51,70.66a12,12,0,1,0,12-12A12,12,0,0,0,33.51,70.66Z"/><path class="cls-2" d="M40.67,70.66a4.87,4.87,0,1,0,4.87-4.87A4.87,4.87,0,0,0,40.67,70.66Z"/><path class="cls-1" d="M6.86,70.66a12,12,0,1,0,12-12A12,12,0,0,0,6.86,70.66Z"/><path class="cls-2" d="M14,70.66a4.87,4.87,0,1,0,4.87-4.87A4.88,4.88,0,0,0,14,70.66Z"/><rect class="cls-2" x="18.68" y="69.17" width="27.4" height="2.25" transform="translate(64.77 140.58) rotate(180)"/><rect class="cls-1" x="145.54" y="20.03" width="12.66" height="17.02" rx="2.31" transform="translate(303.73 57.08) rotate(180)"/><path class="cls-2" d="M158.2,30.2v5.59a1.26,1.26,0,0,1-1.26,1.26H146.8a1.26,1.26,0,0,1-1.26-1.26V30.2Z"/><rect class="cls-6" x="145.54" y="30.2" width="12.66" height="0.78"/><rect class="cls-1" x="129.67" y="20.03" width="12.66" height="17.02" rx="2.31" transform="translate(272 57.08) rotate(180)"/><path class="cls-2" d="M142.33,30.2v5.59a1.26,1.26,0,0,1-1.26,1.26H130.93a1.26,1.26,0,0,1-1.26-1.26V30.2Z"/><rect class="cls-6" x="129.67" y="30.2" width="12.66" height="0.78"/><rect class="cls-1" x="113.8" y="20.03" width="12.66" height="17.02" rx="2.31" transform="translate(240.26 57.08) rotate(180)"/><path class="cls-2" d="M126.46,30.2v5.59a1.26,1.26,0,0,1-1.26,1.26H115.06a1.26,1.26,0,0,1-1.26-1.26V30.2Z"/><rect class="cls-6" x="113.8" y="30.2" width="12.66" height="0.78"/><rect class="cls-1" x="97.93" y="20.03" width="12.66" height="17.02" rx="2.31" transform="translate(208.52 57.08) rotate(180)"/><path class="cls-2" d="M110.59,30.2v5.59a1.26,1.26,0,0,1-1.26,1.26H99.19a1.26,1.26,0,0,1-1.26-1.26V30.2Z"/><rect class="cls-6" x="97.93" y="30.2" width="12.66" height="0.78"/><rect class="cls-1" x="239.25" y="20.03" width="12.66" height="17.02" rx="2.31" transform="translate(491.15 57.08) rotate(180)"/><path class="cls-2" d="M251.9,30.2v5.59a1.25,1.25,0,0,1-1.25,1.26H240.51a1.25,1.25,0,0,1-1.26-1.26V30.2Z"/><rect class="cls-6" x="239.25" y="30.2" width="12.66" height="0.78"/><rect class="cls-1" x="223.38" y="20.03" width="12.66" height="17.02" rx="2.31" transform="translate(459.42 57.08) rotate(180)"/><path class="cls-2" d="M236,30.2v5.59a1.26,1.26,0,0,1-1.26,1.26H224.64a1.26,1.26,0,0,1-1.26-1.26V30.2Z"/><rect class="cls-6" x="223.38" y="30.2" width="12.66" height="0.78"/><rect class="cls-1" x="207.51" y="20.03" width="12.66" height="17.02" rx="2.31" transform="translate(427.68 57.08) rotate(180)"/><path class="cls-2" d="M220.17,30.2v5.59a1.26,1.26,0,0,1-1.26,1.26H208.77a1.26,1.26,0,0,1-1.26-1.26V30.2Z"/><rect class="cls-6" x="207.51" y="30.2" width="12.66" height="0.78"/><rect class="cls-1" x="191.64" y="20.03" width="12.66" height="17.02" rx="2.31" transform="translate(395.94 57.08) rotate(180)"/><path class="cls-2" d="M204.3,30.2v5.59A1.26,1.26,0,0,1,203,37.05H192.9a1.26,1.26,0,0,1-1.26-1.26V30.2Z"/><rect class="cls-6" x="191.64" y="30.2" width="12.66" height="0.78"/><rect class="cls-1" x="51.83" y="20.03" width="12.66" height="17.02" rx="2.31" transform="translate(116.32 57.08) rotate(180)"/><path class="cls-2" d="M64.49,30.2v5.59a1.26,1.26,0,0,1-1.26,1.26H53.09a1.26,1.26,0,0,1-1.26-1.26V30.2Z"/><rect class="cls-6" x="51.83" y="30.2" width="12.66" height="0.78"/><rect class="cls-1" x="35.96" y="20.03" width="12.66" height="17.02" rx="2.31" transform="translate(84.58 57.08) rotate(180)"/><path class="cls-2" d="M48.62,30.2v5.59a1.26,1.26,0,0,1-1.26,1.26H37.22A1.26,1.26,0,0,1,36,35.79V30.2Z"/><rect class="cls-6" x="35.96" y="30.2" width="12.66" height="0.78"/><rect class="cls-1" x="20.09" y="20.03" width="12.66" height="17.02" rx="2.31" transform="translate(52.84 57.08) rotate(180)"/><path class="cls-2" d="M32.75,30.2v5.59a1.26,1.26,0,0,1-1.26,1.26H21.35a1.26,1.26,0,0,1-1.26-1.26V30.2Z"/><rect class="cls-6" x="20.09" y="30.2" width="12.66" height="0.78"/><rect class="cls-1" x="4.23" y="20.03" width="12.66" height="17.02" rx="2.31" transform="translate(21.11 57.08) rotate(180)"/><path class="cls-2" d="M16.88,30.2v5.59a1.25,1.25,0,0,1-1.26,1.26H5.48a1.25,1.25,0,0,1-1.25-1.26V30.2Z"/><rect class="cls-6" x="4.23" y="30.2" width="12.66" height="0.78"/><path class="cls-7" d="M258.21,10.27H.71C2,6,5.49,0,15.29,0H243.64C253.44,0,257,6,258.21,10.27Z"/><rect class="cls-5" y="45.65" width="258.92" height="20.75"/><rect class="cls-1" x="164.02" y="15.86" width="21.6" height="43.89" transform="translate(349.65 75.62) rotate(180)"/><rect class="cls-1" x="70.5" y="15.86" width="21.6" height="43.89" transform="translate(162.61 75.62) rotate(180)"/></g></g></svg>